<svg viewBox="1073 157 2005 1146" fill="none" xmlns="http://www.w3.org/2000/svg">
<path d="M1209.92 161.128C1147.7 160.211 1073 157.307 1073 157.307C1073 157.307 1077.41 329.367 1080.47 386.619C1083.61 444.024 1093.54 558.527 1095.41 615.932C1097.28 673.26 1097.28 787.916 1095.41 845.244C1093.54 902.649 1083.61 1017.23 1080.47 1074.56C1077.41 1131.81 1073 1303.87 1073 1303.87C1073 1303.87 1147.7 1301.04 1209.92 1300.05C1272.21 1299.13 1396.66 1295.77 1458.96 1296.23C1521.25 1296.69 1707.92 1303.87 1707.92 1303.87L1678.26 1273.52C1678.26 1273.52 1520.88 1137.62 1471.58 1088.77C1417.13 1034.89 1316.29 918.93 1264.89 861.984C1235.39 829.269 1147.7 730.588 1147.7 730.588C1147.7 730.588 1235.32 631.754 1264.89 599.199C1316.06 542.941 1417.65 429.738 1471.58 376.231C1521.25 326.929 1678.26 187.66 1678.26 187.66L1707.92 157.383C1707.92 157.383 1710.68 367.67 1715.39 463.057C1717.7 510.907 1726.59 682.662 1726.59 730.588C1726.59 778.514 1717.7 950.269 1715.39 998.119C1710.68 1093.59 1707.92 1303.87 1707.92 1303.87C1707.92 1303.87 1721.36 1288.51 1737.12 1270.62C1752.89 1252.73 1770.96 1232.24 1780.22 1222.23C1809.58 1190.21 1869.34 1127.15 1899.74 1096.11C1929.17 1066 1988.7 1006.53 2019.25 977.634C2034.42 963.264 2081.4 921.682 2081.4 921.682C2081.4 921.682 2034.42 877.203 2019.25 861.915C1987.36 829.811 1894.66 730.588 1894.66 730.588C1894.66 730.588 1987.36 631.38 2019.25 599.268C2034.42 583.981 2081.4 539.494 2081.4 539.494C2081.4 539.494 2034.79 494.625 2019.25 479.728C1989.37 451.064 1928.72 394.645 1899.74 365.071C1868.89 333.579 1810.18 267.529 1780.22 235.128C1762.15 215.628 1707.92 157.307 1707.92 157.307C1707.92 157.307 1521.18 164.492 1458.96 164.95C1396.66 165.417 1272.22 162.122 1209.92 161.128Z" fill="white"></path>
<path d="M2941.08 1300.05C3003.3 1300.96 3078 1303.87 3078 1303.87C3078 1303.87 3073.59 1131.81 3070.53 1074.56C3067.39 1017.15 3057.46 902.649 3055.59 845.244C3053.72 787.916 3053.72 673.26 3055.59 615.932C3057.46 558.527 3067.39 443.947 3070.53 386.619C3073.59 329.367 3078 157.307 3078 157.307C3078 157.307 3003.3 160.135 2941.08 161.128C2878.78 162.046 2754.34 165.409 2692.04 164.95C2629.75 164.484 2443.08 157.307 2443.08 157.307L2472.73 187.652C2472.73 187.652 2630.12 323.558 2679.42 372.402C2733.87 426.29 2834.71 542.246 2886.1 599.192C2915.61 631.907 3003.3 730.588 3003.3 730.588C3003.3 730.588 2915.68 829.422 2886.1 861.976C2834.94 918.234 2733.35 1031.44 2679.42 1084.94C2629.75 1134.25 2472.73 1273.52 2472.73 1273.52L2443.08 1303.79C2443.08 1303.79 2440.32 1093.51 2435.61 998.119C2433.29 950.269 2424.41 778.514 2424.41 730.588C2424.41 682.662 2433.29 510.907 2435.61 463.057C2440.32 367.586 2443.08 157.307 2443.08 157.307C2443.08 157.307 2429.63 172.671 2413.87 190.557C2398.11 208.443 2380.04 228.936 2370.77 238.942C2341.42 270.969 2281.66 334.03 2251.26 365.064C2221.83 395.18 2162.3 454.648 2131.75 483.542C2116.58 497.912 2069.6 539.494 2069.6 539.494C2069.6 539.494 2116.58 583.973 2131.75 599.261C2163.64 631.364 2256.34 730.588 2256.34 730.588C2256.34 730.588 2163.64 829.796 2131.75 861.908C2116.58 877.195 2069.6 921.682 2069.6 921.682C2069.6 921.682 2116.21 966.55 2131.75 981.448C2161.62 1010.11 2222.28 1066.53 2251.26 1096.1C2282.11 1127.6 2340.82 1193.65 2370.77 1226.05C2388.85 1245.55 2443.08 1303.87 2443.08 1303.87C2443.08 1303.87 2629.82 1296.68 2692.04 1296.23C2754.34 1295.76 2878.78 1299.05 2941.08 1300.05Z" fill="white"></path>
</svg>