<svg viewBox="793 373 2563 727" fill="none" xmlns="http://www.w3.org/2000/svg">
<g filter="url(#filter0_d_227_288)">
<path d="M2995.37 644.485C2995.37 600.407 2994.36 556.996 2992.36 514.253C2991.02 471.51 2989.36 428.766 2987.35 386.023C3017.41 387.359 3047.13 388.695 3076.51 390.031C3106.56 390.698 3136.62 391.032 3166.67 391.032C3196.73 391.032 3226.45 390.698 3255.83 390.031C3285.22 388.695 3314.94 387.359 3344.99 386.023C3342.99 396.041 3341.99 406.059 3341.99 416.077C3341.99 426.095 3342.99 436.113 3344.99 446.131C3323.62 444.795 3303.92 443.459 3285.89 442.124C3268.52 440.788 3249.82 439.452 3229.78 438.117C3210.42 436.781 3189.05 435.779 3165.67 435.111C3142.3 433.775 3114.24 433.108 3081.52 433.108C3080.85 454.479 3079.85 474.849 3078.51 494.217C3077.85 513.585 3077.51 535.624 3077.51 560.335C3077.51 586.381 3077.51 611.76 3077.51 636.471C3078.18 661.182 3078.51 679.882 3078.51 692.571C3107.9 692.571 3134.28 692.237 3157.66 691.569C3181.03 690.902 3202.4 690.234 3221.77 689.566C3241.14 688.23 3258.84 687.228 3274.87 686.56C3291.56 685.225 3307.26 683.889 3321.95 682.553C3319.95 692.571 3318.94 702.923 3318.94 713.609C3318.94 723.627 3319.95 733.645 3321.95 743.662C3304.59 741.659 3284.22 739.989 3260.84 738.654C3238.13 737.318 3215.09 736.65 3191.72 736.65C3169.01 735.982 3147.3 735.648 3126.6 735.648C3106.56 734.98 3090.54 734.646 3078.51 734.646C3078.51 740.657 3078.18 747.336 3077.51 754.682C3077.51 761.361 3077.51 770.043 3077.51 780.729V819.799V879.906C3077.51 917.974 3077.51 949.363 3077.51 974.074C3078.18 998.785 3078.85 1017.48 3079.52 1030.17C3101.56 1030.17 3124.93 1030.17 3149.64 1030.17C3175.02 1030.17 3199.73 1029.84 3223.77 1029.17C3248.48 1027.84 3271.53 1026.5 3292.9 1025.17C3314.94 1023.16 3333.97 1020.49 3350 1017.15C3348.66 1021.83 3347.66 1027.17 3346.99 1033.18C3346.99 1038.52 3346.99 1043.53 3346.99 1048.21C3346.99 1058.89 3348 1067.57 3350 1074.25C3319.95 1072.92 3289.89 1072.25 3259.84 1072.25C3230.45 1072.25 3200.4 1072.25 3169.68 1072.25C3138.96 1072.25 3108.57 1072.25 3078.51 1072.25C3048.46 1072.25 3018.07 1072.92 2987.35 1074.25C2989.36 1031.51 2991.02 989.101 2992.36 947.026C2994.36 904.283 2995.37 860.872 2995.37 816.793V644.485Z" fill="white"></path>
<path d="M2198.02 373C2244.11 467.836 2290.52 560.001 2337.27 649.494C2384.69 738.987 2434.11 830.818 2485.54 924.986C2492.22 912.297 2501.9 894.265 2514.59 870.889C2527.28 846.846 2541.97 819.464 2558.67 788.743C2575.37 758.021 2593.06 724.962 2611.76 689.565C2631.13 653.501 2650.5 617.103 2669.87 580.37C2689.9 543.638 2709.61 507.574 2728.97 472.177C2748.34 436.781 2766.37 403.722 2783.07 373H2796.09C2803.44 437.115 2810.12 499.225 2816.13 559.333C2822.81 618.772 2829.49 677.544 2836.16 735.648C2842.84 793.084 2849.52 850.186 2856.2 906.954C2862.88 963.054 2870.23 1018.82 2878.24 1074.25C2870.23 1072.92 2862.21 1072.25 2854.2 1072.25C2846.85 1072.25 2839.17 1072.25 2831.16 1072.25C2823.14 1072.25 2815.13 1072.25 2807.11 1072.25C2799.77 1072.25 2792.09 1072.92 2784.07 1074.25C2776.73 985.427 2769.38 899.273 2762.03 815.791C2754.69 732.309 2745.67 647.156 2734.98 560.335H2732.98C2686.9 644.485 2641.48 728.301 2596.74 811.784C2552.66 894.598 2510.58 981.42 2470.51 1072.25H2461.5C2421.42 988.099 2379.35 903.949 2335.27 819.798C2291.86 734.98 2248.11 648.492 2204.04 560.335H2202.03C2197.36 601.742 2192.01 646.822 2186 695.576C2180.66 743.662 2175.65 791.414 2170.98 838.832C2166.3 885.582 2162.29 929.995 2158.95 972.07C2155.62 1013.48 2153.95 1047.54 2153.95 1074.25C2143.26 1072.92 2131.57 1072.25 2118.88 1072.25C2106.19 1072.25 2094.51 1072.92 2083.82 1074.25C2092.5 1020.16 2101.52 963.054 2110.87 902.947C2120.22 842.839 2129.23 782.398 2137.92 721.623C2146.6 660.848 2154.61 601.074 2161.96 542.302C2169.31 482.863 2175.65 426.429 2180.99 373H2198.02Z" fill="white"></path>
<path d="M1287.15 731.641C1287.15 674.873 1296.17 624.449 1314.2 580.371C1332.9 535.624 1358.61 497.89 1391.34 467.168C1424.73 436.447 1464.47 413.072 1510.55 397.043C1556.63 381.014 1607.06 373 1661.82 373C1717.25 373 1768.01 381.014 1814.09 397.043C1860.18 413.072 1899.58 436.447 1932.31 467.168C1965.7 497.89 1991.41 535.624 2009.44 580.371C2028.14 624.449 2037.49 674.873 2037.49 731.641C2037.49 788.409 2028.14 839.166 2009.44 883.913C1991.41 927.992 1965.7 965.392 1932.31 996.113C1899.58 1026.83 1860.18 1049.88 1814.09 1065.24C1768.01 1079.93 1717.25 1087.28 1661.82 1087.28C1607.06 1087.28 1556.63 1079.93 1510.55 1065.24C1464.47 1049.88 1424.73 1026.83 1391.34 996.113C1358.61 965.392 1332.9 927.992 1314.2 883.913C1296.17 839.166 1287.15 788.409 1287.15 731.641ZM1939.32 731.641C1939.32 676.208 1932.31 628.456 1918.28 588.385C1904.26 547.645 1884.55 514.252 1859.17 488.206C1834.46 461.491 1805.08 441.79 1771.02 429.1C1737.62 416.411 1701.23 410.066 1661.82 410.066C1623.09 410.066 1586.69 416.411 1552.63 429.1C1519.23 441.79 1489.85 461.491 1464.47 488.206C1439.76 514.252 1420.39 547.645 1406.37 588.385C1392.34 628.456 1385.33 676.208 1385.33 731.641C1385.33 787.073 1392.34 835.159 1406.37 875.899C1420.39 915.97 1439.76 949.363 1464.47 976.078C1489.85 1002.12 1519.23 1021.49 1552.63 1034.18C1586.69 1046.87 1623.09 1053.22 1661.82 1053.22C1701.23 1053.22 1737.62 1046.87 1771.02 1034.18C1805.08 1021.49 1834.46 1002.12 1859.17 976.078C1884.55 949.363 1904.26 915.97 1918.28 875.899C1932.31 835.159 1939.32 787.073 1939.32 731.641Z" fill="white"></path>
<path d="M808.014 645.487C808.014 601.408 807.013 558.331 805.009 516.256C803.673 473.513 802.004 430.102 800 386.023C819.368 387.359 838.402 388.695 857.102 390.031C875.802 390.698 894.836 391.032 914.204 391.032C933.572 391.032 952.606 390.365 971.306 389.029C990.006 387.025 1009.04 386.023 1028.41 386.023C1056.46 386.023 1083.17 388.695 1108.55 394.038C1133.93 399.381 1155.97 408.397 1174.67 421.086C1194.04 433.108 1209.06 449.136 1219.75 469.172C1231.1 489.208 1236.78 514.253 1236.78 544.306C1236.78 576.364 1229.43 604.08 1214.74 627.455C1200.72 650.162 1183.35 669.196 1162.65 684.557C1141.94 699.25 1119.57 710.937 1095.53 719.619C1072.15 727.634 1050.78 732.977 1031.41 735.648C1039.43 745.666 1050.45 759.691 1064.47 777.723C1078.5 795.756 1094.19 815.791 1111.56 837.831C1128.92 859.202 1146.95 881.909 1165.65 905.952C1184.35 929.328 1202.39 952.035 1219.75 974.074C1237.11 995.446 1253.48 1015.15 1268.84 1033.18C1284.2 1051.21 1296.55 1064.9 1305.9 1074.25C1295.89 1072.92 1285.87 1072.25 1275.85 1072.25C1265.83 1072.25 1255.81 1072.25 1245.8 1072.25C1236.45 1072.25 1226.76 1072.25 1216.74 1072.25C1206.73 1072.25 1197.04 1072.92 1187.69 1074.25C1177.67 1060.23 1162.31 1039.19 1141.61 1011.14C1121.57 983.09 1099.2 953.036 1074.49 920.979C1049.78 888.922 1024.4 857.199 998.354 825.809C972.976 793.752 949.601 766.704 928.229 744.664H890.161V817.795C890.161 861.874 890.829 905.285 892.165 948.028C894.168 990.771 896.172 1032.85 898.175 1074.25C882.815 1072.92 866.452 1072.25 849.088 1072.25C831.723 1072.25 815.361 1072.92 800 1074.25C802.004 1032.85 803.673 990.771 805.009 948.028C807.013 905.285 808.014 861.874 808.014 817.795V645.487ZM890.161 702.589C899.511 704.593 909.529 705.928 920.215 706.596C931.568 707.264 943.924 707.598 957.281 707.598C977.985 707.598 999.356 705.26 1021.4 700.585C1044.1 695.91 1064.81 687.896 1083.51 676.543C1102.21 664.521 1117.57 648.826 1129.59 629.458C1142.28 609.423 1148.62 584.378 1148.62 554.324C1148.62 528.278 1143.61 506.906 1133.6 490.21C1124.25 472.845 1111.89 459.154 1096.53 449.136C1081.17 439.118 1064.47 432.44 1046.44 429.1C1028.41 425.093 1010.71 423.09 993.346 423.09C969.97 423.09 950.602 423.758 935.242 425.093C919.881 425.761 906.858 426.763 896.172 428.099C894.836 464.831 893.5 501.229 892.165 537.294C890.829 573.358 890.161 609.423 890.161 645.487V702.589Z" fill="white"></path>
</g>
<defs>
<filter id="filter0_d_227_288" x="793.928" y="373" width="2562.14" height="726.422" filterUnits="userSpaceOnUse" color-interpolation-filters="sRGB">
<feFlood flood-opacity="0" result="BackgroundImageFix"></feFlood>
<feColorMatrix in="SourceAlpha" type="matrix" values="0 0 0 0 0 0 0 0 0 0 0 0 0 0 0 0 0 0 127 0" result="hardAlpha"></feColorMatrix>
<feOffset dy="6.07243"></feOffset>
<feGaussianBlur stdDeviation="3.03622"></feGaussianBlur>
<feComposite in2="hardAlpha" operator="out"></feComposite>
<feColorMatrix type="matrix" values="0 0 0 0 0 0 0 0 0 0 0 0 0 0 0 0 0 0 0.25 0"></feColorMatrix>
<feBlend mode="normal" in2="BackgroundImageFix" result="effect1_dropShadow_227_288"></feBlend>
<feBlend mode="normal" in="SourceGraphic" in2="effect1_dropShadow_227_288" result="shape"></feBlend>
</filter>
</defs>
</svg>